<svg width="15" height="14" viewBox="0 0 15 14" fill="none" xmlns="http://www.w3.org/2000/svg"><path d="m11.69 6.236-5.917 5.916-.863-.863.102-.101H3.844a.4.4 0 0 1-.406-.407V9.613l-.102.102a.93.93 0 0 0-.254.431l-.584 1.981 1.98-.584a1.1 1.1 0 0 0 .432-.254l.863.863a2.2 2.2 0 0 1-.939.559l-3.072.889a.52.52 0 0 1-.584-.153.57.57 0 0 1-.178-.584l.914-3.072c.102-.355.305-.686.559-.94l5.916-5.915zm1.802-4.113a1.64 1.64 0 0 1 0 2.31l-1.219 1.22-3.3-3.301 1.218-1.22a1.64 1.64 0 0 1 2.311 0z" fill="#000" fill-opacity=".5"/></svg>