<svg width="10" height="11" viewBox="0 0 10 11" fill="none" xmlns="http://www.w3.org/2000/svg"><path d="M5 .25c2.754 0 5 2.246 5 5 0 2.773-2.246 5-5 5-2.773 0-5-2.227-5-5 0-2.754 2.227-5 5-5m0 9.063A4.07 4.07 0 0 0 9.063 5.25c0-2.227-1.836-4.062-4.063-4.062A4.07 4.07 0 0 0 .938 5.25 4.06 4.06 0 0 0 5 9.313m0-2.5a.63.63 0 0 1 .625.625.63.63 0 0 1-.625.625.605.605 0 0 1-.625-.626c0-.351.273-.625.625-.625m.645-4.063c.78 0 1.386.605 1.367 1.367 0 .469-.254.918-.664 1.172l-.88.547v.039a.475.475 0 0 1-.468.47.475.475 0 0 1-.469-.469v-.312c0-.157.078-.313.235-.41l1.113-.665a.42.42 0 0 0 .215-.37c0-.235-.215-.43-.469-.43h-.996a.417.417 0 0 0-.41.43.475.475 0 0 1-.469.468.475.475 0 0 1-.469-.469c0-.762.606-1.367 1.367-1.367z" fill="#616161"/></svg>