<svg width="183" height="54" viewBox="0 0 183 54" fill="none" xmlns="http://www.w3.org/2000/svg"><rect width="183" height="54" rx="10" fill="#F1F1F1"/><path d="M10.959 17V8.273h1.317v7.594h3.954V17zm9.428.132q-.921 0-1.607-.422a2.85 2.85 0 0 1-1.065-1.18q-.38-.759-.38-1.773 0-1.019.38-1.781a2.84 2.84 0 0 1 1.066-1.185q.685-.422 1.606-.422t1.607.422 1.065 1.185.38 1.781q0 1.014-.38 1.773t-1.065 1.18-1.607.422m.004-1.07q.597 0 .989-.315.391-.315.58-.84.19-.524.191-1.154 0-.627-.192-1.15a1.87 1.87 0 0 0-.579-.849q-.391-.32-.989-.32-.6 0-.997.32a1.9 1.9 0 0 0-.584.848q-.187.525-.187 1.15 0 .631.187 1.156.192.524.584.84.396.315.997.315m6.374 1.083q-.622 0-1.125-.23a1.9 1.9 0 0 1-.797-.678q-.29-.443-.29-1.086 0-.555.214-.912.213-.359.575-.567.362-.209.81-.316.447-.105.912-.161l.954-.111q.366-.046.533-.15.165-.1.166-.332v-.03q0-.558-.315-.865-.311-.306-.93-.306-.642 0-1.014.285a1.53 1.53 0 0 0-.507.627l-1.197-.273q.213-.597.622-.963.413-.371.95-.537.537-.17 1.13-.17.392 0 .83.093.444.09.827.333.388.242.635.694.247.447.247 1.163V17h-1.244v-.895H28.7a1.8 1.8 0 0 1-.37.486q-.248.238-.636.396a2.5 2.5 0 0 1-.929.158m.277-1.023q.528 0 .904-.209.378-.208.575-.545.2-.34.2-.729v-.843a.7.7 0 0 1-.264.127 4 4 0 0 1-.439.098l-.481.073-.392.05a3 3 0 0 0-.678.159q-.303.11-.486.32-.18.203-.179.545 0 .473.35.716.35.238.89.238m7.1 1.006q-.792 0-1.414-.405-.618-.409-.972-1.163-.35-.76-.349-1.82 0-1.06.354-1.815.357-.755.98-1.155.622-.4 1.41-.4.61 0 .98.204.376.2.58.469.21.268.324.473h.077V8.273h1.274V17H36.14v-1.018h-.106q-.115.208-.333.477a1.85 1.85 0 0 1-.588.469q-.375.2-.971.2m.282-1.087q.55 0 .929-.29.384-.294.58-.813.2-.52.2-1.21 0-.683-.196-1.194a1.75 1.75 0 0 0-.575-.797q-.38-.285-.938-.285-.575 0-.959.298t-.58.814a3.3 3.3 0 0 0-.191 1.163q0 .657.196 1.18.195.525.58.832.387.302.954.302m4.78.959v-6.546h1.274V17zm.644-7.555a.8.8 0 0 1-.571-.222.72.72 0 0 1-.235-.537q0-.316.235-.537.24-.226.57-.226.333 0 .567.226.24.222.24.537 0 .31-.24.537a.8.8 0 0 1-.566.222m3.619 3.669V17h-1.274v-6.546h1.223v1.066h.08q.227-.52.708-.835.486-.316 1.223-.316.67 0 1.172.282.502.276.78.826.276.55.277 1.36V17H46.38v-4.01q0-.711-.37-1.112-.371-.405-1.019-.405-.443 0-.788.192a1.4 1.4 0 0 0-.541.562q-.196.367-.196.887m8.642 6.477q-.78 0-1.343-.205a2.6 2.6 0 0 1-.912-.54 2.3 2.3 0 0 1-.528-.738l1.095-.452q.116.187.307.397.196.213.528.362.337.15.865.149.725 0 1.198-.354.473-.35.473-1.116v-1.287h-.081q-.116.209-.332.464-.213.256-.588.444-.376.187-.976.187-.775 0-1.398-.362-.618-.366-.98-1.078-.358-.716-.358-1.76t.353-1.79q.36-.746.98-1.142.623-.4 1.411-.4.609 0 .984.204.375.2.584.469.214.268.328.473h.094v-1.062h1.249v6.69q0 .844-.392 1.386-.393.54-1.061.801-.666.26-1.5.26m-.013-3.746q.55 0 .929-.256.384-.26.58-.741.2-.486.2-1.163 0-.66-.196-1.164a1.73 1.73 0 0 0-.576-.784q-.379-.285-.937-.285-.576 0-.959.298a1.8 1.8 0 0 0-.58.801 3.2 3.2 0 0 0-.191 1.134q0 .643.196 1.129t.58.758q.387.273.954.273" fill="#303030"/><path stroke="#CCC" stroke-dasharray="2 2" d="M10 21h46"/><path d="M10.97 43v-1.428l3.787-3.712q.543-.549.905-.975.363-.427.544-.826.18-.399.18-.852 0-.517-.234-.884a1.56 1.56 0 0 0-.644-.575 2.1 2.1 0 0 0-.932-.203q-.538 0-.943.224a1.54 1.54 0 0 0-.629.623q-.218.405-.218.964h-1.88q0-1.038.474-1.806a3.2 3.2 0 0 1 1.305-1.187q.835-.421 1.917-.421 1.098 0 1.928.41.831.41 1.29 1.124.463.714.463 1.63 0 .612-.234 1.204-.235.59-.826 1.31-.586.72-1.646 1.742l-1.88 1.912v.075h4.751V43zm13.108.15q-1.065 0-1.906-.4a3.4 3.4 0 0 1-1.338-1.108 2.93 2.93 0 0 1-.521-1.609h1.917q.055.67.58 1.097.528.42 1.268.421a2 2 0 0 0 1.034-.266 1.9 1.9 0 0 0 .714-.74q.261-.475.255-1.082a2.2 2.2 0 0 0-.26-1.097q-.268-.48-.73-.751a2.04 2.04 0 0 0-1.066-.277 2.5 2.5 0 0 0-.964.18 2 2 0 0 0-.751.49l-1.784-.292.57-5.625h6.328v1.651H22.73l-.315 2.893h.064q.305-.357.858-.592.554-.24 1.215-.24.99 0 1.768.47.777.462 1.225 1.278.448.815.448 1.864 0 1.082-.501 1.928a3.54 3.54 0 0 1-1.38 1.327q-.879.48-2.035.48m9.493 0q-1.065 0-1.907-.4a3.4 3.4 0 0 1-1.337-1.108 2.93 2.93 0 0 1-.522-1.609h1.917q.054.67.58 1.097.528.42 1.269.421.58 0 1.033-.266a1.9 1.9 0 0 0 .714-.74q.261-.475.256-1.082a2.2 2.2 0 0 0-.261-1.097q-.267-.48-.73-.751a2.04 2.04 0 0 0-1.066-.277 2.5 2.5 0 0 0-.964.18 2 2 0 0 0-.75.49l-1.785-.292.57-5.625h6.328v1.651h-4.693l-.314 2.893h.064q.303-.357.857-.592.554-.24 1.215-.24.99 0 1.768.47.778.462 1.225 1.278.448.815.448 1.864 0 1.082-.5 1.928a3.54 3.54 0 0 1-1.38 1.327q-.88.48-2.035.48m7.618-1.642-.07.586q-.074.672-.265 1.364-.187.698-.395 1.284-.207.586-.335.921h-1.3l.203-.884q.133-.56.255-1.257.123-.697.165-1.417l.038-.596zm5.8 1.641q-1.065 0-1.907-.4a3.4 3.4 0 0 1-1.337-1.107 2.93 2.93 0 0 1-.522-1.609h1.917q.055.67.58 1.097.528.42 1.269.421.58 0 1.033-.266a1.9 1.9 0 0 0 .714-.74q.26-.475.256-1.082a2.2 2.2 0 0 0-.261-1.097q-.267-.48-.73-.751a2.04 2.04 0 0 0-1.066-.277 2.5 2.5 0 0 0-.964.18 2 2 0 0 0-.75.49l-1.785-.292.57-5.625h6.328v1.651H45.64l-.314 2.893h.064q.303-.357.857-.592.554-.24 1.215-.24.99 0 1.768.47.778.462 1.225 1.278.448.815.448 1.864 0 1.082-.5 1.928a3.54 3.54 0 0 1-1.38 1.327q-.88.48-2.035.48m9.577 0q-1.188 0-2.11-.4-.916-.4-1.437-1.091a2.56 2.56 0 0 1-.512-1.582 2.6 2.6 0 0 1 .298-1.263q.304-.575.82-.959.523-.388 1.162-.495v-.075a2.3 2.3 0 0 1-1.364-.857 2.48 2.48 0 0 1-.511-1.56 2.5 2.5 0 0 1 .469-1.503q.474-.66 1.3-1.039.825-.383 1.885-.383 1.05 0 1.87.383.825.379 1.3 1.039.479.66.479 1.502 0 .885-.528 1.56a2.3 2.3 0 0 1-1.347.858v.075q.64.106 1.15.495.517.384.82.96.31.574.31 1.262 0 .885-.522 1.582-.522.692-1.439 1.092-.91.4-2.093.4m0-1.523q.613 0 1.065-.208.453-.212.703-.597.251-.383.256-.884a1.65 1.65 0 0 0-.272-.921 1.8 1.8 0 0 0-.719-.634 2.26 2.26 0 0 0-1.033-.23q-.586 0-1.044.23a1.8 1.8 0 0 0-.724.634q-.261.399-.256.921a1.55 1.55 0 0 0 .245.884q.25.38.703.592.458.213 1.076.213m0-4.97q.501 0 .884-.203.39-.202.613-.564t.229-.836a1.56 1.56 0 0 0-.224-.82 1.44 1.44 0 0 0-.607-.55 1.95 1.95 0 0 0-.895-.197q-.517 0-.91.198-.39.19-.608.548a1.5 1.5 0 0 0-.208.82q-.005.475.213.837.225.357.613.564.395.203.9.203m10.242-4.565V43h-1.976v-8.986h-.064l-2.552 1.63v-1.811l2.712-1.742z" fill="#303030"/><path d="m74.14 38.156 1.985-2A.58.58 0 0 1 76.5 36c.125 0 .25.063.344.156l1.984 2c.14.14.188.36.11.547a.48.48 0 0 1-.454.297H74.5a.5.5 0 0 1-.469-.297.51.51 0 0 1 .11-.547m9.314-3.054q.357.003.716.137.357.133.653.443.296.307.474.838.18.531.18 1.332 0 .776-.148 1.378-.145.6-.42 1.012a1.86 1.86 0 0 1-.666.625q-.39.213-.88.213-.489 0-.873-.194a1.7 1.7 0 0 1-.624-.542 1.9 1.9 0 0 1-.31-.81h.693q.094.4.372.662.282.258.742.259.673 0 1.062-.588.392-.59.392-1.662h-.045q-.159.238-.378.412a1.67 1.67 0 0 1-1.054.36q-.5 0-.918-.247a1.9 1.9 0 0 1-.665-.684 2 2 0 0 1-.247-1q0-.535.239-.978.241-.446.676-.71a1.9 1.9 0 0 1 1.028-.256m0 .625q-.36 0-.645.18-.285.175-.452.477-.165.297-.165.661t.16.662q.16.296.44.472.28.173.639.173a1.2 1.2 0 0 0 .909-.397 1.4 1.4 0 0 0 .276-.424q.099-.239.099-.497a1.3 1.3 0 0 0-.165-.64 1.3 1.3 0 0 0-.449-.482 1.16 1.16 0 0 0-.648-.185m6.105 4.182v-.307q0-.318.131-.582.135-.267.386-.426.255-.162.62-.162.368 0 .62.162.25.159.377.426.128.264.128.582v.307q0 .318-.13.585a1.03 1.03 0 0 1-.382.426 1.1 1.1 0 0 1-.613.16q-.37 0-.622-.16a1.05 1.05 0 0 1-.384-.426 1.3 1.3 0 0 1-.13-.585m.58-.307v.307a.9.9 0 0 0 .125.474q.124.208.432.208.298 0 .42-.208a.9.9 0 0 0 .125-.474v-.307a.93.93 0 0 0-.12-.471q-.118-.21-.425-.21-.299 0-.43.21a.9.9 0 0 0-.127.471m-3.477-3.022v-.307q0-.319.13-.583.134-.267.387-.426.256-.162.619-.162.37 0 .62.162.25.159.377.426.128.264.128.583v.306q0 .32-.13.586a1.03 1.03 0 0 1-.381.426 1.1 1.1 0 0 1-.614.159q-.37 0-.622-.16a1.05 1.05 0 0 1-.384-.425 1.3 1.3 0 0 1-.13-.585m.58-.307v.306q-.001.265.124.475.125.207.432.207.298 0 .42-.207a.9.9 0 0 0 .126-.474v-.307a.93.93 0 0 0-.12-.472q-.12-.21-.426-.21-.298 0-.429.21a.9.9 0 0 0-.128.472M86.878 41l4-5.818h.647l-4 5.818z" fill="#616161"/><rect x="9" y="27" width="152" height="20" rx="2" fill="#D9D9D9"/><rect x="9" y="7" width="124" height="15" rx="2" fill="#D9D9D9"/></svg>