<svg width="773" height="54" viewBox="0 0 773 54" fill="none" xmlns="http://www.w3.org/2000/svg"><rect width="183" height="54" rx="10" fill="#F1F1F1"/><path d="M10.959 17V8.273h1.317v7.594h3.954V17zm9.428.132q-.921 0-1.607-.422a2.85 2.85 0 0 1-1.065-1.18q-.38-.759-.38-1.773 0-1.019.38-1.781a2.84 2.84 0 0 1 1.066-1.185q.685-.422 1.606-.422t1.607.422 1.065 1.185.38 1.781q0 1.014-.38 1.773t-1.065 1.18-1.607.422m.004-1.07q.597 0 .989-.315.391-.315.58-.84.19-.524.191-1.154 0-.627-.192-1.15a1.87 1.87 0 0 0-.579-.849q-.391-.32-.989-.32-.6 0-.997.32a1.9 1.9 0 0 0-.584.848q-.187.525-.187 1.15 0 .631.187 1.156.192.524.584.84.396.315.997.315m6.374 1.083q-.622 0-1.125-.23a1.9 1.9 0 0 1-.797-.678q-.29-.443-.29-1.086 0-.555.214-.912.213-.359.575-.567.362-.209.81-.316.447-.105.912-.161l.954-.111q.366-.046.533-.15.165-.1.166-.332v-.03q0-.558-.315-.865-.311-.306-.93-.306-.642 0-1.014.285a1.53 1.53 0 0 0-.507.627l-1.197-.273q.213-.597.622-.963.413-.371.95-.537.537-.17 1.13-.17.392 0 .83.093.444.09.827.333.388.242.635.694.247.447.247 1.163V17h-1.244v-.895H28.7a1.8 1.8 0 0 1-.37.486q-.248.238-.636.396a2.5 2.5 0 0 1-.929.158m.277-1.023q.528 0 .904-.209.378-.208.575-.545.2-.34.2-.729v-.843a.7.7 0 0 1-.264.127 4 4 0 0 1-.439.098l-.481.073-.392.05a3 3 0 0 0-.678.159q-.303.11-.486.32-.18.203-.179.545 0 .473.35.716.35.238.89.238m7.1 1.006q-.792 0-1.414-.405-.618-.409-.972-1.163-.35-.76-.349-1.82 0-1.06.354-1.815.357-.755.98-1.155.622-.4 1.41-.4.61 0 .98.204.376.2.58.469.21.268.324.473h.077V8.273h1.274V17H36.14v-1.018h-.106q-.115.208-.333.477a1.85 1.85 0 0 1-.588.469q-.375.2-.971.2m.282-1.087q.55 0 .929-.29.384-.294.58-.813.2-.52.2-1.21 0-.683-.196-1.194a1.75 1.75 0 0 0-.575-.797q-.38-.285-.938-.285-.575 0-.959.298t-.58.814a3.3 3.3 0 0 0-.191 1.163q0 .657.196 1.18.195.525.58.832.387.302.954.302m4.78.959v-6.546h1.274V17zm.644-7.555a.8.8 0 0 1-.571-.222.72.72 0 0 1-.235-.537q0-.316.235-.537.24-.226.57-.226.333 0 .567.226.24.222.24.537 0 .31-.24.537a.8.8 0 0 1-.566.222m3.619 3.669V17h-1.274v-6.546h1.223v1.066h.08q.227-.52.708-.835.486-.316 1.223-.316.67 0 1.172.282.502.276.78.826.276.55.277 1.36V17H46.38v-4.01q0-.711-.37-1.112-.371-.405-1.019-.405-.443 0-.788.192a1.4 1.4 0 0 0-.541.562q-.196.367-.196.887m8.642 6.477q-.78 0-1.343-.205a2.6 2.6 0 0 1-.912-.54 2.3 2.3 0 0 1-.528-.738l1.095-.452q.116.187.307.397.196.213.528.362.337.15.865.149.725 0 1.198-.354.473-.35.473-1.116v-1.287h-.081q-.116.209-.332.464-.213.256-.588.444-.376.187-.976.187-.775 0-1.398-.362-.618-.366-.98-1.078-.358-.716-.358-1.76t.353-1.79q.36-.746.98-1.142.623-.4 1.411-.4.609 0 .984.204.375.2.584.469.214.268.328.473h.094v-1.062h1.249v6.69q0 .844-.392 1.386-.393.54-1.061.801-.666.26-1.5.26m-.013-3.746q.55 0 .929-.256.384-.26.58-.741.2-.486.2-1.163 0-.66-.196-1.164a1.73 1.73 0 0 0-.576-.784q-.379-.285-.937-.285-.576 0-.959.298a1.8 1.8 0 0 0-.58.801 3.2 3.2 0 0 0-.191 1.134q0 .643.196 1.129t.58.758q.387.273.954.273" fill="#303030"/><path stroke="#CCC" stroke-dasharray="2 2" d="M10 21h46"/><path d="M10.97 43v-1.428l3.787-3.712q.543-.549.905-.975.363-.427.544-.826.18-.399.18-.852 0-.517-.234-.884a1.56 1.56 0 0 0-.644-.575 2.1 2.1 0 0 0-.932-.203q-.538 0-.943.224a1.54 1.54 0 0 0-.629.623q-.218.405-.218.964h-1.88q0-1.038.474-1.806a3.2 3.2 0 0 1 1.305-1.187q.835-.421 1.917-.421 1.098 0 1.928.41.831.41 1.29 1.124.463.714.463 1.63 0 .612-.234 1.204-.235.59-.826 1.31-.586.72-1.646 1.742l-1.88 1.912v.075h4.751V43zm13.108.15q-1.065 0-1.906-.4a3.4 3.4 0 0 1-1.338-1.108 2.93 2.93 0 0 1-.521-1.609h1.917q.055.67.58 1.097.528.42 1.268.421a2 2 0 0 0 1.034-.266 1.9 1.9 0 0 0 .714-.74q.261-.475.255-1.082a2.2 2.2 0 0 0-.26-1.097q-.268-.48-.73-.751a2.04 2.04 0 0 0-1.066-.277 2.5 2.5 0 0 0-.964.18 2 2 0 0 0-.751.49l-1.784-.292.57-5.625h6.328v1.651H22.73l-.315 2.893h.064q.305-.357.858-.592.554-.24 1.215-.24.99 0 1.768.47.777.462 1.225 1.278.448.815.448 1.864 0 1.082-.501 1.928a3.54 3.54 0 0 1-1.38 1.327q-.879.48-2.035.48m9.493 0q-1.065 0-1.907-.4a3.4 3.4 0 0 1-1.337-1.108 2.93 2.93 0 0 1-.522-1.609h1.917q.054.67.58 1.097.528.42 1.269.421.58 0 1.033-.266a1.9 1.9 0 0 0 .714-.74q.261-.475.256-1.082a2.2 2.2 0 0 0-.261-1.097q-.267-.48-.73-.751a2.04 2.04 0 0 0-1.066-.277 2.5 2.5 0 0 0-.964.18 2 2 0 0 0-.75.49l-1.785-.292.57-5.625h6.328v1.651h-4.693l-.314 2.893h.064q.303-.357.857-.592.554-.24 1.215-.24.99 0 1.768.47.778.462 1.225 1.278.448.815.448 1.864 0 1.082-.5 1.928a3.54 3.54 0 0 1-1.38 1.327q-.88.48-2.035.48m7.618-1.642-.07.586q-.074.672-.265 1.364-.187.698-.395 1.284-.207.586-.335.921h-1.3l.203-.884q.133-.56.255-1.257.123-.697.165-1.417l.038-.596zm5.8 1.641q-1.065 0-1.907-.4a3.4 3.4 0 0 1-1.337-1.107 2.93 2.93 0 0 1-.522-1.609h1.917q.055.67.58 1.097.528.42 1.269.421.58 0 1.033-.266a1.9 1.9 0 0 0 .714-.74q.26-.475.256-1.082a2.2 2.2 0 0 0-.261-1.097q-.267-.48-.73-.751a2.04 2.04 0 0 0-1.066-.277 2.5 2.5 0 0 0-.964.18 2 2 0 0 0-.75.49l-1.785-.292.57-5.625h6.328v1.651H45.64l-.314 2.893h.064q.303-.357.857-.592.554-.24 1.215-.24.99 0 1.768.47.778.462 1.225 1.278.448.815.448 1.864 0 1.082-.5 1.928a3.54 3.54 0 0 1-1.38 1.327q-.88.48-2.035.48m9.577 0q-1.188 0-2.11-.4-.916-.4-1.437-1.091a2.56 2.56 0 0 1-.512-1.582 2.6 2.6 0 0 1 .298-1.263q.304-.575.82-.959.523-.388 1.162-.495v-.075a2.3 2.3 0 0 1-1.364-.857 2.48 2.48 0 0 1-.511-1.56 2.5 2.5 0 0 1 .469-1.503q.474-.66 1.3-1.039.825-.383 1.885-.383 1.05 0 1.87.383.825.379 1.3 1.039.479.66.479 1.502 0 .885-.528 1.56a2.3 2.3 0 0 1-1.347.858v.075q.64.106 1.15.495.517.384.82.96.31.574.31 1.262 0 .885-.522 1.582-.522.692-1.439 1.092-.91.4-2.093.4m0-1.523q.613 0 1.065-.208.453-.212.703-.597.251-.383.256-.884a1.65 1.65 0 0 0-.272-.921 1.8 1.8 0 0 0-.719-.634 2.26 2.26 0 0 0-1.033-.23q-.586 0-1.044.23a1.8 1.8 0 0 0-.724.634q-.261.399-.256.921a1.55 1.55 0 0 0 .245.884q.25.38.703.592.458.213 1.076.213m0-4.97q.501 0 .884-.203.39-.202.613-.564t.229-.836a1.56 1.56 0 0 0-.224-.82 1.44 1.44 0 0 0-.607-.55 1.95 1.95 0 0 0-.895-.197q-.517 0-.91.198-.39.19-.608.548a1.5 1.5 0 0 0-.208.82q-.005.475.213.837.225.357.613.564.395.203.9.203m10.242-4.565V43h-1.976v-8.986h-.064l-2.552 1.63v-1.811l2.712-1.742z" fill="#303030"/><path d="m74.14 38.156 1.985-2A.58.58 0 0 1 76.5 36c.125 0 .25.063.344.156l1.984 2c.14.14.188.36.11.547a.48.48 0 0 1-.454.297H74.5a.5.5 0 0 1-.469-.297.51.51 0 0 1 .11-.547m9.314-3.054q.357.003.716.137.357.133.653.443.296.307.474.838.18.531.18 1.332 0 .776-.148 1.378-.145.6-.42 1.012a1.86 1.86 0 0 1-.666.625q-.39.213-.88.213-.489 0-.873-.194a1.7 1.7 0 0 1-.624-.542 1.9 1.9 0 0 1-.31-.81h.693q.094.4.372.662.282.258.742.259.673 0 1.062-.588.392-.59.392-1.662h-.045q-.159.238-.378.412a1.67 1.67 0 0 1-1.054.36q-.5 0-.918-.247a1.9 1.9 0 0 1-.665-.684 2 2 0 0 1-.247-1q0-.535.239-.978.241-.446.676-.71a1.9 1.9 0 0 1 1.028-.256m0 .625q-.36 0-.645.18-.285.175-.452.477-.165.297-.165.661t.16.662q.16.296.44.472.28.173.639.173a1.2 1.2 0 0 0 .909-.397 1.4 1.4 0 0 0 .276-.424q.099-.239.099-.497a1.3 1.3 0 0 0-.165-.64 1.3 1.3 0 0 0-.449-.482 1.16 1.16 0 0 0-.648-.185m6.105 4.182v-.307q0-.318.131-.582.135-.267.386-.426.255-.162.62-.162.368 0 .62.162.25.159.377.426.128.264.128.582v.307q0 .318-.13.585a1.03 1.03 0 0 1-.382.426 1.1 1.1 0 0 1-.613.16q-.37 0-.622-.16a1.05 1.05 0 0 1-.384-.426 1.3 1.3 0 0 1-.13-.585m.58-.307v.307a.9.9 0 0 0 .125.474q.124.208.432.208.298 0 .42-.208a.9.9 0 0 0 .125-.474v-.307a.93.93 0 0 0-.12-.471q-.118-.21-.425-.21-.299 0-.43.21a.9.9 0 0 0-.127.471m-3.477-3.022v-.307q0-.319.13-.583.134-.267.387-.426.256-.162.619-.162.37 0 .62.162.25.159.377.426.128.264.128.583v.306q0 .32-.13.586a1.03 1.03 0 0 1-.381.426 1.1 1.1 0 0 1-.614.159q-.37 0-.622-.16a1.05 1.05 0 0 1-.384-.425 1.3 1.3 0 0 1-.13-.585m.58-.307v.306q-.001.265.124.475.125.207.432.207.298 0 .42-.207a.9.9 0 0 0 .126-.474v-.307a.93.93 0 0 0-.12-.472q-.12-.21-.426-.21-.298 0-.429.21a.9.9 0 0 0-.128.472M86.878 41l4-5.818h.647l-4 5.818z" fill="#616161"/><rect x="9" y="27" width="152" height="20" rx="2" fill="#D9D9D9"/><rect x="9" y="7" width="124" height="15" rx="2" fill="#D9D9D9"/><rect x="187" width="183" height="54" rx="10" fill="#F1F1F1"/><path d="M205.003 8.273V17h-1.21l-4.436-6.4h-.081V17h-1.317V8.273h1.219l4.44 6.409h.081v-6.41zm4.639 8.86q-.966 0-1.666-.414a2.8 2.8 0 0 1-1.074-1.172q-.375-.759-.375-1.777 0-1.005.375-1.773.38-.766 1.057-1.197.682-.43 1.594-.43.553 0 1.074.183.519.183.933.575t.652 1.018q.239.623.239 1.513v.452h-5.203v-.955h3.954q0-.503-.204-.89a1.55 1.55 0 0 0-.576-.618 1.6 1.6 0 0 0-.861-.226q-.537 0-.937.264-.396.26-.614.682a2 2 0 0 0-.213.908v.745q0 .657.23 1.117.235.46.652.703.418.239.976.239.363 0 .661-.103.298-.106.515-.315t.333-.516l1.206.218q-.145.532-.52.933-.37.396-.933.618a3.5 3.5 0 0 1-1.275.217m7.278-6.678v1.022h-3.576v-1.023zm-2.617-1.569h1.274v6.192q0 .37.111.558a.58.58 0 0 0 .286.252q.178.064.388.064.153 0 .268-.022l.179-.034.23 1.053a2.5 2.5 0 0 1-.827.136 2.2 2.2 0 0 1-.937-.179 1.6 1.6 0 0 1-.703-.58q-.269-.39-.269-.984zM221.505 17v-6.546h1.232v1.04h.068a1.58 1.58 0 0 1 .63-.83 1.8 1.8 0 0 1 1.032-.307 6 6 0 0 1 .541.03v1.218a2 2 0 0 0-.273-.047 3 3 0 0 0-.392-.03q-.452 0-.805.192a1.42 1.42 0 0 0-.759 1.283V17zm7.192.132q-.967 0-1.666-.413a2.8 2.8 0 0 1-1.074-1.172q-.375-.759-.375-1.777 0-1.005.375-1.773.38-.766 1.057-1.197.681-.43 1.594-.43a3.2 3.2 0 0 1 1.073.183q.52.183.934.575.413.391.652 1.018.238.623.238 1.513v.452h-5.203v-.955h3.955q0-.503-.205-.89a1.55 1.55 0 0 0-.575-.618 1.6 1.6 0 0 0-.861-.226q-.537 0-.937.264-.397.26-.614.682a2 2 0 0 0-.213.908v.745q0 .657.23 1.117.234.46.652.703.418.239.976.239.362 0 .66-.103a1.36 1.36 0 0 0 .848-.831l1.206.218q-.144.532-.52.933-.37.396-.933.618a3.5 3.5 0 0 1-1.274.217m7.277-6.678v1.023h-3.575v-1.023zm-2.616-1.568h1.274v6.192q0 .37.111.558a.58.58 0 0 0 .285.252q.18.064.388.064.153 0 .269-.022l.179-.034.23 1.053a2 2 0 0 1-.316.085 2.5 2.5 0 0 1-.511.051 2.2 2.2 0 0 1-.937-.179 1.6 1.6 0 0 1-.704-.58q-.268-.39-.268-.984zm8.172 5.4v-3.831h1.279V17h-1.253v-1.133h-.068q-.226.523-.725.873-.494.345-1.231.345-.631 0-1.117-.277a1.94 1.94 0 0 1-.758-.83q-.273-.55-.273-1.36v-4.164h1.274v4.01q0 .67.371 1.066.37.396.963.396.358 0 .711-.179.359-.18.593-.541.238-.363.234-.92M244.521 17v-6.546h1.231v1.04h.068q.18-.528.631-.83a1.8 1.8 0 0 1 1.031-.307 5 5 0 0 1 .541.03v1.218a2 2 0 0 0-.272-.047 3 3 0 0 0-.392-.03q-.452 0-.806.192a1.43 1.43 0 0 0-.758 1.283V17zm5.879-3.886V17h-1.274v-6.546h1.223v1.066h.081q.226-.52.707-.835.486-.316 1.223-.316.67 0 1.172.282.503.276.78.826t.277 1.36V17h-1.274v-4.01q0-.711-.371-1.112-.37-.405-1.018-.405-.443 0-.789.192a1.4 1.4 0 0 0-.541.562q-.195.367-.196.887m14.673-2.66L262.7 17h-1.364l-2.378-6.546h1.368l1.658 5.038h.068l1.653-5.038zm2.915 6.69q-.623 0-1.125-.23a1.9 1.9 0 0 1-.797-.677q-.29-.443-.29-1.086 0-.555.213-.912a1.57 1.57 0 0 1 .576-.567 3 3 0 0 1 .809-.316q.448-.105.912-.161l.955-.111q.367-.046.532-.15.167-.1.167-.332v-.03q0-.558-.316-.865-.31-.306-.929-.306-.643 0-1.014.285a1.53 1.53 0 0 0-.507.627l-1.197-.273a2.3 2.3 0 0 1 .622-.963q.413-.371.95-.537.537-.17 1.129-.17.393 0 .831.093.443.09.827.333.387.242.635.694.247.447.247 1.163V17h-1.244v-.895h-.051a1.8 1.8 0 0 1-.371.486q-.248.238-.635.396a2.5 2.5 0 0 1-.929.158m.277-1.022q.528 0 .903-.209.38-.208.576-.545.2-.34.2-.729v-.843a.7.7 0 0 1-.264.127q-.192.056-.439.098l-.482.073-.392.05a3 3 0 0 0-.677.159 1.16 1.16 0 0 0-.486.32q-.179.203-.179.545 0 .473.349.716.35.238.891.238m5.924-7.85V17h-1.274V8.273zm5.861 6.014v-3.831h1.278V17h-1.253v-1.133h-.068q-.225.523-.724.873-.495.345-1.232.345-.63 0-1.116-.277a1.95 1.95 0 0 1-.759-.83q-.273-.55-.273-1.36v-4.164h1.275v4.01q0 .67.37 1.066t.963.396q.358 0 .712-.179.358-.18.592-.541.239-.363.235-.92m5.811 2.846q-.967 0-1.666-.413a2.8 2.8 0 0 1-1.074-1.172q-.375-.759-.375-1.777 0-1.005.375-1.773.38-.766 1.057-1.197.682-.43 1.594-.43.553 0 1.074.183.519.183.933.575.413.391.652 1.018.238.623.238 1.513v.452h-5.203v-.955h3.955q0-.503-.205-.89a1.55 1.55 0 0 0-.575-.618 1.6 1.6 0 0 0-.861-.226q-.537 0-.937.264-.397.26-.614.682a2 2 0 0 0-.213.908v.745q0 .657.23 1.117.235.46.652.703.418.239.976.239.362 0 .66-.103a1.36 1.36 0 0 0 .848-.831l1.206.218a2.2 2.2 0 0 1-.519.933 2.5 2.5 0 0 1-.934.618 3.5 3.5 0 0 1-1.274.217" fill="#303030"/><path stroke="#CCC" stroke-dasharray="2 2" d="M197 21h93"/><path d="M202.95 36.752v1.587h-4.911v-1.587zm5.522 7.612V30.727h.874v13.637zm2.52-9.274a1.45 1.45 0 0 0-.629-1.087q-.548-.389-1.427-.389-.618 0-1.06.187-.442.186-.677.506a1.23 1.23 0 0 0-.239.73q0 .34.154.59.16.252.432.427.271.171.601.288.332.117.666.197l1.023.255q.618.144 1.188.39.575.245 1.028.617.458.373.724.9.267.528.267 1.236 0 .96-.49 1.689-.49.724-1.417 1.134-.923.405-2.232.405-1.274 0-2.211-.394-.932-.394-1.459-1.15-.522-.758-.565-1.844h1.944q.043.57.352.948.309.379.804.565.501.186 1.119.187.645 0 1.129-.192.49-.198.767-.543.277-.352.282-.82a1.04 1.04 0 0 0-.25-.704 1.8 1.8 0 0 0-.687-.469 6.6 6.6 0 0 0-1.023-.34l-1.241-.32q-1.347-.346-2.131-1.05-.777-.708-.777-1.88 0-.965.522-1.688.527-.725 1.433-1.124.905-.405 2.05-.405 1.162 0 2.035.405.879.399 1.38 1.113.5.708.517 1.63zm8.143-3V43h-1.976v-8.986h-.064l-2.551 1.63v-1.811l2.711-1.742zm6.563 11.06q-1.066 0-1.907-.4a3.4 3.4 0 0 1-1.337-1.108 2.93 2.93 0 0 1-.522-1.609h1.917q.054.67.581 1.097.527.42 1.268.421.58 0 1.033-.266.453-.267.714-.74a2.16 2.16 0 0 0 .255-1.082 2.2 2.2 0 0 0-.261-1.097q-.265-.48-.729-.751a2.04 2.04 0 0 0-1.066-.277 2.5 2.5 0 0 0-.964.18 2 2 0 0 0-.751.49l-1.784-.292.57-5.625h6.328v1.651h-4.693l-.314 2.893h.064q.303-.357.857-.592.554-.24 1.215-.24.99 0 1.768.47.778.462 1.225 1.278.448.815.448 1.864 0 1.082-.501 1.928a3.54 3.54 0 0 1-1.38 1.327q-.879.48-2.034.48m7.618-1.642-.069.586q-.075.672-.266 1.364-.187.698-.395 1.284-.207.586-.335.921h-1.3l.202-.884q.134-.56.256-1.257.123-.697.165-1.417l.038-.596zm5.746 1.7q-1.316 0-2.258-.666-.937-.671-1.444-1.934-.5-1.267-.5-3.052.005-1.785.506-3.036.506-1.257 1.443-1.918.944-.66 2.253-.66t2.254.66q.942.66 1.443 1.918.506 1.257.506 3.036 0 1.79-.506 3.058-.501 1.262-1.443 1.928-.938.666-2.254.666m0-1.667q1.023 0 1.614-1.007.597-1.012.597-2.978 0-1.299-.272-2.184t-.767-1.331a1.68 1.68 0 0 0-1.172-.453q-1.017 0-1.608 1.012-.592 1.006-.597 2.956-.004 1.305.261 2.195.272.89.767 1.342.496.447 1.177.447m6.079 1.46 4.64-9.183v-.075h-5.385v-1.651h7.43v1.688L247.192 43zm7.739.117q-.484 0-.831-.34a1.1 1.1 0 0 1-.341-.832 1.1 1.1 0 0 1 .341-.82q.347-.34.831-.34.468 0 .815.34.351.34.357.82a1.14 1.14 0 0 1-.171.592q-.159.266-.426.426a1.1 1.1 0 0 1-.575.154m2.944-2.141v-1.572l4.629-7.313h1.31v2.237h-.799l-3.116 4.938v.085h6.462v1.625zM261.028 43v-2.504l.022-.703v-7.702h1.864V43zm4.786-2.024v-1.572l4.629-7.313h1.311v2.237h-.799l-3.116 4.938v.085h6.461v1.625zM271.019 43v-2.504l.021-.703v-7.702h1.864V43z" fill="#303030"/><path d="m281.141 38.156 1.984-2A.57.57 0 0 1 283.5 36c.125 0 .25.063.344.156l1.984 2c.141.14.188.36.11.547a.48.48 0 0 1-.454.297H281.5a.5.5 0 0 1-.469-.297.51.51 0 0 1 .11-.547m9.507-2.974V41h-.705v-5.08h-.034l-1.42.944v-.716l1.454-.966zm1.537 4.625v-.58l2.556-4.045h.421v.898h-.284l-1.932 3.056v.046h3.443v.625zM294.923 41v-5.818h.671V41zm5.497-1.09v-.308q0-.318.13-.582.133-.267.387-.426.255-.162.619-.162.37 0 .619.162.25.159.378.426.128.264.128.582v.307q0 .318-.131.585a1.03 1.03 0 0 1-.38.426 1.1 1.1 0 0 1-.614.16q-.369 0-.622-.16a1.06 1.06 0 0 1-.384-.426 1.3 1.3 0 0 1-.13-.585m.579-.308v.307q0 .264.125.474.126.208.432.208.298 0 .421-.208a.9.9 0 0 0 .125-.474v-.307a.9.9 0 0 0-.12-.471q-.118-.21-.426-.21-.298 0-.429.21a.9.9 0 0 0-.128.471m-3.477-3.022v-.307q0-.319.131-.583.134-.267.386-.426.256-.162.619-.162.37 0 .62.162.249.159.378.426.127.264.127.583v.306q0 .32-.13.586a1.03 1.03 0 0 1-.381.426 1.1 1.1 0 0 1-.614.159q-.369 0-.622-.16a1.05 1.05 0 0 1-.383-.425 1.3 1.3 0 0 1-.131-.585m.58-.307v.306q0 .265.125.475.125.207.431.207.298 0 .421-.207a.9.9 0 0 0 .125-.474v-.307a.93.93 0 0 0-.119-.472q-.12-.21-.427-.21-.297 0-.429.21a.9.9 0 0 0-.127.472M297.738 41l4-5.818h.648l-4 5.818z" fill="#616161"/><rect x="196" y="27" width="152" height="20" rx="2" fill="#D9D9D9"/><rect x="196" y="7" width="124" height="15" rx="2" fill="#D9D9D9"/><rect x="374" width="183" height="54" rx="10" fill="#F1F1F1"/><path d="M384.528 9.406V8.273h6.755v1.133h-2.723V17h-1.313V9.406zm9.953 7.726q-.92 0-1.607-.422a2.85 2.85 0 0 1-1.065-1.18q-.38-.759-.379-1.773 0-1.019.379-1.781a2.84 2.84 0 0 1 1.065-1.185q.687-.422 1.607-.422t1.606.422 1.066 1.185.379 1.781q0 1.014-.379 1.773-.38.758-1.066 1.18t-1.606.422m.004-1.07q.596 0 .989-.315.392-.315.579-.84.192-.524.192-1.154 0-.627-.192-1.15a1.9 1.9 0 0 0-.579-.849q-.392-.32-.989-.32-.6 0-.997.32a1.9 1.9 0 0 0-.584.848q-.187.525-.187 1.15 0 .631.187 1.156.192.524.584.84.397.315.997.315m7.525-5.608v1.023h-3.576v-1.023zm-2.617-1.568h1.274v6.192q0 .37.111.558a.58.58 0 0 0 .286.252q.179.064.387.064.154 0 .269-.022l.179-.034.23 1.053a2.5 2.5 0 0 1-.827.136 2.2 2.2 0 0 1-.937-.179 1.6 1.6 0 0 1-.703-.58q-.269-.39-.269-.984zm5.931 8.259q-.623 0-1.125-.23a1.9 1.9 0 0 1-.797-.678q-.29-.443-.29-1.086 0-.555.213-.912a1.57 1.57 0 0 1 .576-.567 3 3 0 0 1 .809-.316q.448-.105.912-.161l.955-.111q.367-.046.532-.15.167-.1.167-.332v-.03q0-.558-.316-.865-.31-.306-.929-.306-.644 0-1.014.285a1.53 1.53 0 0 0-.507.627l-1.198-.273a2.3 2.3 0 0 1 .623-.963q.413-.371.95-.537.537-.17 1.129-.17.393 0 .831.093.443.09.827.333.387.242.635.694.247.447.247 1.163V17h-1.244v-.895h-.051a1.8 1.8 0 0 1-.371.486q-.248.238-.635.396a2.5 2.5 0 0 1-.929.158m.277-1.023q.528 0 .903-.209.38-.208.576-.545.2-.34.2-.729v-.843a.7.7 0 0 1-.264.127q-.192.056-.439.098l-.482.073-.392.05a3 3 0 0 0-.677.159 1.16 1.16 0 0 0-.486.32q-.18.203-.179.545 0 .473.349.716.35.238.891.238m5.924-7.85V17h-1.274V8.273zm7.647 8.86q-.92 0-1.606-.422a2.84 2.84 0 0 1-1.066-1.18q-.379-.759-.379-1.773 0-1.019.379-1.781a2.84 2.84 0 0 1 1.066-1.185q.686-.422 1.606-.422t1.607.422 1.065 1.185q.38.762.379 1.781 0 1.014-.379 1.773-.38.758-1.065 1.18-.687.422-1.607.422m.004-1.07q.597 0 .989-.315t.58-.84q.192-.524.191-1.154 0-.627-.191-1.15a1.9 1.9 0 0 0-.58-.849q-.392-.32-.989-.32-.6 0-.997.32a1.9 1.9 0 0 0-.583.848q-.188.525-.188 1.15 0 .631.188 1.156.191.524.583.84.397.315.997.315m4.47.938v-6.546h1.231v1.04h.068q.18-.528.631-.83a1.8 1.8 0 0 1 1.031-.307 5 5 0 0 1 .541.03v1.218a2 2 0 0 0-.272-.047 3 3 0 0 0-.392-.03q-.452 0-.806.192a1.43 1.43 0 0 0-.758 1.283V17zm6.821.128q-.792 0-1.415-.405-.618-.409-.971-1.163-.35-.76-.35-1.82t.354-1.815q.358-.755.98-1.155.623-.4 1.41-.4.61 0 .981.204.375.2.579.469.209.268.324.473h.077V8.273h1.274V17h-1.244v-1.018h-.107q-.115.208-.332.477a1.85 1.85 0 0 1-.588.469q-.375.2-.972.2m.281-1.087q.55 0 .929-.29.384-.294.58-.813.2-.52.2-1.21 0-.683-.196-1.194a1.75 1.75 0 0 0-.575-.797q-.38-.285-.938-.285-.575 0-.959.298a1.83 1.83 0 0 0-.579.814 3.3 3.3 0 0 0-.192 1.163q0 .657.196 1.18.196.525.58.832.387.302.954.302m7.601 1.091q-.966 0-1.666-.413a2.8 2.8 0 0 1-1.074-1.172q-.375-.759-.375-1.777 0-1.005.375-1.773.38-.766 1.057-1.197.682-.43 1.594-.43.553 0 1.074.183.519.183.933.575t.652 1.018q.239.623.239 1.513v.452h-5.203v-.955h3.954q0-.503-.204-.89a1.55 1.55 0 0 0-.576-.618 1.6 1.6 0 0 0-.861-.226q-.536 0-.937.264-.396.26-.614.682a2 2 0 0 0-.213.908v.745q0 .657.23 1.117.235.46.652.703.418.239.976.239.363 0 .661-.103.298-.106.515-.315t.333-.516l1.206.218q-.145.532-.52.933-.37.396-.933.618a3.5 3.5 0 0 1-1.275.217m4.222-.132v-6.546h1.232v1.04h.068q.179-.528.631-.83a1.8 1.8 0 0 1 1.031-.307 5 5 0 0 1 .541.03v1.218a2 2 0 0 0-.273-.047q-.195-.03-.392-.03-.451 0-.805.192a1.42 1.42 0 0 0-.758 1.283V17zm9.511-4.947-1.155.204a1.4 1.4 0 0 0-.23-.422 1.15 1.15 0 0 0-.418-.328 1.5 1.5 0 0 0-.66-.128q-.541 0-.904.243-.362.24-.362.618 0 .329.243.528.243.2.784.329l1.04.238q.903.21 1.346.644t.444 1.129q0 .588-.341 1.048-.337.456-.942.716-.601.26-1.394.26-1.1 0-1.794-.469-.695-.472-.852-1.342l1.232-.187q.114.48.473.728.357.243.933.243.626 0 1.001-.26.375-.264.375-.643a.67.67 0 0 0-.23-.516q-.225-.21-.694-.315l-1.108-.243q-.916-.21-1.356-.665-.434-.456-.434-1.155 0-.579.324-1.014a2.1 2.1 0 0 1 .895-.678 3.3 3.3 0 0 1 1.308-.247q1.06 0 1.67.46.61.456.806 1.224" fill="#303030"/><path stroke="#CCC" stroke-dasharray="2 2" d="M384 21h69"/><path d="M389.407 32.09V43h-1.977v-8.986h-.064l-2.551 1.63v-1.811l2.711-1.742zm6.802 11.118q-1.315 0-2.259-.666-.938-.671-1.443-1.934-.501-1.267-.501-3.052.006-1.785.506-3.036.506-1.257 1.444-1.918.942-.66 2.253-.66 1.31 0 2.253.66t1.444 1.918q.506 1.257.506 3.036 0 1.79-.506 3.058-.5 1.262-1.444 1.928-.937.666-2.253.666m0-1.667q1.023 0 1.614-1.007.597-1.012.596-2.978 0-1.299-.271-2.184-.272-.885-.767-1.331a1.68 1.68 0 0 0-1.172-.453q-1.017 0-1.609 1.012-.591 1.006-.596 2.956-.006 1.305.261 2.195.271.89.767 1.342.495.447 1.177.447m7.833-.032-.07.585a8.6 8.6 0 0 1-.266 1.364q-.186.698-.394 1.284t-.336.921h-1.299l.202-.884q.133-.56.256-1.257.122-.697.165-1.417l.037-.596zm5.799 1.64q-1.065 0-1.907-.4a3.4 3.4 0 0 1-1.337-1.107 2.94 2.94 0 0 1-.522-1.609h1.918q.053.67.58 1.097.528.42 1.268.421.58 0 1.034-.266.452-.267.713-.74a2.16 2.16 0 0 0 .256-1.082 2.2 2.2 0 0 0-.261-1.097 1.96 1.96 0 0 0-.73-.751 2.04 2.04 0 0 0-1.065-.277 2.5 2.5 0 0 0-.964.18 2 2 0 0 0-.751.49l-1.785-.292.57-5.625h6.328v1.651h-4.692l-.315 2.893h.064q.304-.357.858-.592.554-.24 1.214-.24.991 0 1.769.47.778.462 1.225 1.278.447.815.447 1.864 0 1.082-.5 1.928a3.55 3.55 0 0 1-1.38 1.327q-.879.48-2.035.48m10.137-11.058V43h-1.976v-8.986h-.064l-2.552 1.63v-1.811l2.712-1.742zm7.207 0V43h-1.976v-8.986h-.064l-2.552 1.63v-1.811l2.712-1.742z" fill="#303030"/><path d="m434.141 38.156 1.984-2A.57.57 0 0 1 436.5 36c.125 0 .25.063.344.156l1.984 2c.141.14.188.36.11.547a.48.48 0 0 1-.454.297H434.5a.5.5 0 0 1-.469-.297.51.51 0 0 1 .11-.547M441.602 41v-.511l1.921-2.103q.338-.369.557-.642.218-.275.323-.517.108-.244.108-.511a.95.95 0 0 0-.147-.531.96.96 0 0 0-.398-.347 1.3 1.3 0 0 0-.568-.122q-.336 0-.586.14a.96.96 0 0 0-.383.383 1.2 1.2 0 0 0-.134.58h-.67q0-.512.236-.899.236-.386.642-.602.409-.216.917-.216.511 0 .907.216.394.216.619.583.224.366.224.815 0 .32-.116.628a2.8 2.8 0 0 1-.398.679q-.281.371-.781.909l-1.307 1.398v.045h2.705V41zm7.81-1.09v-.308q0-.318.131-.582.133-.267.386-.426.255-.162.619-.162.37 0 .62.162.25.159.377.426.128.264.128.582v.307q0 .318-.13.585a1.04 1.04 0 0 1-.381.426 1.1 1.1 0 0 1-.614.16q-.369 0-.622-.16a1.05 1.05 0 0 1-.383-.426 1.3 1.3 0 0 1-.131-.585m.579-.308v.307q0 .264.125.474.126.208.432.208.298 0 .421-.208a.9.9 0 0 0 .125-.474v-.307a.9.9 0 0 0-.12-.471q-.118-.21-.426-.21-.298 0-.429.21a.9.9 0 0 0-.128.471m-3.477-3.022v-.307q0-.319.131-.583.134-.267.386-.426.256-.162.62-.162.369 0 .619.162.25.159.378.426.128.264.128.583v.306q0 .32-.131.586a1.03 1.03 0 0 1-.381.426q-.25.159-.613.159-.37 0-.623-.16a1.05 1.05 0 0 1-.383-.425 1.3 1.3 0 0 1-.131-.585m.58-.307v.306q0 .265.125.475.124.207.432.207.298 0 .42-.207a.9.9 0 0 0 .125-.474v-.307a.93.93 0 0 0-.119-.472q-.12-.21-.426-.21-.298 0-.429.21a.87.87 0 0 0-.128.472M446.73 41l4-5.818h.648l-4 5.818z" fill="#616161"/><rect x="383" y="27" width="152" height="20" rx="2" fill="#D9D9D9"/><rect x="383" y="7" width="124" height="15" rx="2" fill="#D9D9D9"/><rect x="561" width="183" height="54" rx="10" fill="#F1F1F1"/><path d="M579.207 11.11h-1.329a2.02 2.02 0 0 0-.797-1.299 2.2 2.2 0 0 0-.678-.34 2.6 2.6 0 0 0-.788-.116q-.754 0-1.351.38-.592.378-.937 1.112-.341.732-.341 1.79 0 1.065.341 1.798.345.733.941 1.108.597.375 1.343.375.413 0 .784-.111.375-.116.677-.337a2.04 2.04 0 0 0 .806-1.283l1.329.005a3.6 3.6 0 0 1-.413 1.184 3.3 3.3 0 0 1-.78.93 3.5 3.5 0 0 1-1.082.6q-.61.213-1.33.213-1.133 0-2.02-.537-.886-.54-1.397-1.546-.507-1.005-.507-2.4 0-1.397.511-2.399.511-1.005 1.398-1.542.886-.542 2.015-.542.694 0 1.296.2.605.197 1.086.58.482.38.797.93.316.544.426 1.248m4.231 6.022q-.92 0-1.607-.422a2.85 2.85 0 0 1-1.065-1.18q-.38-.759-.379-1.773 0-1.019.379-1.781a2.84 2.84 0 0 1 1.065-1.185q.687-.422 1.607-.422t1.606.422 1.066 1.185.379 1.781q0 1.014-.379 1.773-.38.758-1.066 1.18t-1.606.422m.004-1.07q.596 0 .989-.315.391-.315.579-.84.192-.524.192-1.154 0-.627-.192-1.15a1.9 1.9 0 0 0-.579-.849q-.392-.32-.989-.32-.6 0-.997.32a1.9 1.9 0 0 0-.584.848q-.187.525-.187 1.15 0 .631.187 1.156.192.524.584.84.397.315.997.315m5.743-2.948V17h-1.274v-6.546h1.223v1.066h.081q.226-.52.708-.835.485-.316 1.223-.316.669 0 1.171.282.504.276.78.826.277.55.277 1.36V17H592.1v-4.01q0-.711-.371-1.112-.37-.405-1.018-.405-.444 0-.788.192a1.4 1.4 0 0 0-.542.562q-.196.367-.196.887m11.263-2.66L598.075 17h-1.364l-2.378-6.546h1.368l1.658 5.038h.068l1.653-5.038zm3.796 6.678q-.967 0-1.666-.413a2.8 2.8 0 0 1-1.074-1.172q-.375-.759-.375-1.777 0-1.005.375-1.773.38-.766 1.057-1.197.682-.43 1.593-.43.555 0 1.074.183.52.183.934.575.412.391.652 1.018.238.623.238 1.513v.452h-5.203v-.955h3.955q0-.503-.205-.89a1.55 1.55 0 0 0-.575-.618 1.6 1.6 0 0 0-.861-.226q-.536 0-.938.264-.396.26-.613.682a2 2 0 0 0-.213.908v.745q0 .657.23 1.117.234.46.652.703.418.239.976.239.361 0 .66-.103a1.36 1.36 0 0 0 .848-.831l1.206.218q-.144.532-.52.933-.37.396-.933.618a3.5 3.5 0 0 1-1.274.217m4.222-.132v-6.546h1.231v1.04h.069a1.58 1.58 0 0 1 .63-.83 1.8 1.8 0 0 1 1.032-.307 6 6 0 0 1 .541.03v1.218a2 2 0 0 0-.273-.047 3 3 0 0 0-.392-.03q-.452 0-.805.192a1.42 1.42 0 0 0-.759 1.283V17zm9.51-4.947-1.155.204a1.4 1.4 0 0 0-.23-.422 1.14 1.14 0 0 0-.417-.328 1.5 1.5 0 0 0-.661-.128q-.542 0-.903.243-.362.24-.362.618 0 .329.242.528.243.2.785.329l1.039.238q.904.21 1.347.644t.443 1.129q0 .588-.341 1.048-.336.456-.942.716-.6.26-1.393.26-1.1 0-1.794-.469-.695-.472-.852-1.342l1.231-.187q.116.48.473.728.359.243.933.243.627 0 1.002-.26.375-.264.375-.643a.67.67 0 0 0-.23-.516q-.226-.21-.695-.315l-1.108-.243q-.916-.21-1.355-.665-.435-.456-.435-1.155 0-.579.324-1.014a2.1 2.1 0 0 1 .895-.678 3.3 3.3 0 0 1 1.308-.247q1.062 0 1.671.46.61.456.805 1.224M619.505 17v-6.546h1.274V17zm.643-7.555a.8.8 0 0 1-.571-.222.72.72 0 0 1-.234-.537q0-.316.234-.537.24-.226.571-.226.333 0 .567.226a.7.7 0 0 1 .239.537q0 .31-.239.537a.8.8 0 0 1-.567.222m5.102 7.687q-.92 0-1.606-.422a2.84 2.84 0 0 1-1.066-1.18q-.379-.759-.379-1.773 0-1.019.379-1.781a2.84 2.84 0 0 1 1.066-1.185q.686-.422 1.606-.422.921 0 1.607.422t1.065 1.185.379 1.781q0 1.014-.379 1.773-.38.758-1.065 1.18-.686.422-1.607.422m.005-1.07q.596 0 .988-.315.393-.315.58-.84.192-.524.192-1.154 0-.627-.192-1.15a1.87 1.87 0 0 0-.58-.849q-.392-.32-.988-.32-.601 0-.998.32a1.9 1.9 0 0 0-.583.848q-.188.525-.188 1.15 0 .631.188 1.156.191.524.583.84.397.315.998.315m5.743-2.948V17h-1.274v-6.546h1.223v1.066h.081q.225-.52.707-.835.486-.316 1.223-.316.67 0 1.172.282.503.276.78.826t.277 1.36V17h-1.274v-4.01q0-.711-.371-1.112-.37-.405-1.019-.405-.443 0-.788.192a1.4 1.4 0 0 0-.541.562q-.196.367-.196.887M640.071 17v-6.546h1.232v1.04h.068q.179-.528.631-.83a1.8 1.8 0 0 1 1.031-.307 5 5 0 0 1 .541.03v1.218a2 2 0 0 0-.273-.047q-.195-.03-.392-.03-.451 0-.805.192a1.42 1.42 0 0 0-.758 1.283V17zm6.452.145q-.623 0-1.125-.23a1.9 1.9 0 0 1-.797-.678q-.29-.443-.29-1.086 0-.555.214-.912.212-.359.575-.567a3 3 0 0 1 .809-.316q.448-.105.912-.161l.955-.111q.366-.046.533-.15.166-.1.166-.332v-.03q0-.558-.316-.865-.31-.306-.929-.306-.644 0-1.014.285a1.53 1.53 0 0 0-.507.627l-1.197-.273a2.3 2.3 0 0 1 .622-.963q.413-.371.95-.537a3.7 3.7 0 0 1 1.129-.17q.393 0 .831.093.444.09.827.333.388.242.635.694.247.447.247 1.163V17h-1.244v-.895h-.051a1.8 1.8 0 0 1-.371.486q-.247.238-.635.396a2.5 2.5 0 0 1-.929.158m.277-1.023q.528 0 .903-.209.38-.208.576-.545.2-.34.2-.729v-.843q-.068.068-.264.127-.192.056-.439.098l-.482.073-.392.05a3 3 0 0 0-.677.159 1.16 1.16 0 0 0-.486.32q-.179.203-.179.545 0 .473.349.716.35.238.891.238m7.706-5.667v1.022h-3.576v-1.023zm-2.617-1.569h1.274v6.192q0 .37.111.558a.58.58 0 0 0 .286.252q.178.064.387.064.154 0 .269-.022l.179-.034.23 1.053a2.5 2.5 0 0 1-.827.136 2.2 2.2 0 0 1-.937-.179 1.6 1.6 0 0 1-.703-.58q-.269-.39-.269-.984zm6.777 8.246q-.967 0-1.666-.413a2.8 2.8 0 0 1-1.074-1.172q-.375-.759-.375-1.777 0-1.005.375-1.773.38-.766 1.057-1.197.681-.43 1.593-.43.555 0 1.074.183.52.183.933.575t.652 1.018q.24.623.239 1.513v.452h-5.203v-.955h3.954q0-.503-.204-.89a1.55 1.55 0 0 0-.575-.618 1.6 1.6 0 0 0-.861-.226q-.537 0-.938.264-.396.26-.613.682a2 2 0 0 0-.213.908v.745q0 .657.23 1.117.234.46.652.703.417.239.976.239.361 0 .66-.103a1.37 1.37 0 0 0 .848-.831l1.206.218q-.144.532-.52.933-.37.396-.933.618a3.5 3.5 0 0 1-1.274.217" fill="#303030"/><path stroke="#CCC" stroke-dasharray="2 2" d="M571 21h92"/><path d="M575.885 43.15q-1.15 0-2.046-.395-.89-.395-1.406-1.097a2.85 2.85 0 0 1-.549-1.625h2.003q.027.442.293.772.267.326.708.506.442.181.991.181.586 0 1.039-.202.453-.207.708-.575.256-.368.251-.847a1.48 1.48 0 0 0-.256-.874 1.7 1.7 0 0 0-.756-.59q-.49-.214-1.183-.214h-.964v-1.523h.964q.57 0 .996-.198.432-.196.677-.553.245-.362.239-.837a1.45 1.45 0 0 0-.207-.804 1.4 1.4 0 0 0-.592-.538 1.94 1.94 0 0 0-.889-.192q-.501 0-.927.181-.426.18-.687.517-.26.33-.277.788h-1.902q.021-.916.528-1.608a3.4 3.4 0 0 1 1.363-1.087q.852-.394 1.913-.394 1.092 0 1.896.41.81.405 1.252 1.092t.442 1.518q.005.922-.544 1.545-.543.623-1.427.815v.085q1.15.16 1.763.852.618.687.613 1.71 0 .916-.522 1.64-.518.72-1.428 1.13-.906.41-2.077.41m6.742-.033q-.485 0-.831-.34a1.1 1.1 0 0 1-.341-.832 1.1 1.1 0 0 1 .341-.82q.347-.34.831-.34.468 0 .815.34.351.34.357.82a1.14 1.14 0 0 1-.171.592q-.159.266-.426.426a1.1 1.1 0 0 1-.575.154m6.231-11.026V43h-1.976v-8.986h-.064l-2.552 1.63v-1.811l2.711-1.742zm6.648 11.058q-1.188 0-2.11-.4-.916-.4-1.438-1.091a2.56 2.56 0 0 1-.511-1.582 2.6 2.6 0 0 1 .298-1.263q.303-.575.82-.959.522-.388 1.161-.495v-.075a2.3 2.3 0 0 1-1.363-.857 2.48 2.48 0 0 1-.512-1.56 2.5 2.5 0 0 1 .469-1.503q.474-.66 1.3-1.039.825-.383 1.886-.383 1.048 0 1.869.383.826.379 1.3 1.039.479.66.479 1.502 0 .885-.527 1.56a2.3 2.3 0 0 1-1.348.858v.075q.64.106 1.151.495.517.384.82.96.309.574.309 1.262 0 .885-.522 1.582-.522.692-1.438 1.092-.91.4-2.093.4m0-1.523q.612 0 1.065-.208a1.66 1.66 0 0 0 .703-.597q.25-.383.256-.884a1.66 1.66 0 0 0-.272-.921 1.8 1.8 0 0 0-.719-.634 2.26 2.26 0 0 0-1.033-.23q-.586 0-1.045.23a1.83 1.83 0 0 0-.724.634 1.6 1.6 0 0 0-.256.921q-.005.501.245.884.25.38.704.592.458.213 1.076.213m0-4.97q.5 0 .884-.203a1.54 1.54 0 0 0 .612-.564 1.6 1.6 0 0 0 .229-.836 1.56 1.56 0 0 0-.223-.82 1.44 1.44 0 0 0-.608-.55 1.95 1.95 0 0 0-.894-.197q-.518 0-.911.198-.39.19-.608.548a1.5 1.5 0 0 0-.207.82q-.006.475.213.837.223.357.612.564.394.203.901.203m11.637 4.299v-.576q0-.633.266-1.166a2.15 2.15 0 0 1 .789-.858q.516-.325 1.251-.325.757 0 1.268.325.512.32.773.852.266.533.266 1.172v.576q0 .633-.266 1.166a2.1 2.1 0 0 1-.783.858q-.511.325-1.258.325-.745 0-1.262-.325a2.1 2.1 0 0 1-.783-.858 2.6 2.6 0 0 1-.261-1.166m1.39-.576v.576q0 .42.203.772.203.351.713.352.517 0 .709-.347.197-.351.197-.777v-.576q0-.426-.186-.777-.187-.357-.72-.357-.5 0-.708.357a1.5 1.5 0 0 0-.208.777m-6.935-5.667v-.576q0-.639.272-1.172.271-.532.788-.852.517-.324 1.252-.325.75 0 1.262.325.517.32.778.852.261.534.261 1.172v.576q0 .639-.266 1.171a2.06 2.06 0 0 1-.778.847q-.518.32-1.257.32-.752 0-1.268-.32a2.1 2.1 0 0 1-.778-.852 2.6 2.6 0 0 1-.266-1.166m1.401-.576v.576q0 .426.197.777.202.347.714.347.511 0 .703-.347.197-.351.197-.777v-.576q0-.426-.187-.777-.186-.357-.713-.357-.507 0-.709.357a1.55 1.55 0 0 0-.202.777M602.205 43l7.5-10.91h1.332l-7.5 10.91z" fill="#303030"/><path d="m618.141 38.156 1.984-2A.57.57 0 0 1 620.5 36c.125 0 .25.063.344.156l1.984 2c.141.14.188.36.11.547a.48.48 0 0 1-.454.297H618.5a.5.5 0 0 1-.469-.297.51.51 0 0 1 .11-.547M625.784 41l2.602-5.148v-.045h-3v-.625h3.728v.659L626.523 41zm7.354-1.09v-.308q0-.318.131-.582.133-.267.387-.426a1.13 1.13 0 0 1 .619-.162q.37 0 .619.162.25.159.378.426.128.264.128.582v.307q0 .318-.131.585a1.03 1.03 0 0 1-.381.426 1.1 1.1 0 0 1-.613.16q-.37 0-.622-.16a1.05 1.05 0 0 1-.384-.426 1.3 1.3 0 0 1-.131-.585m.58-.308v.307q0 .264.125.474.125.208.432.208.298 0 .42-.208a.9.9 0 0 0 .125-.474v-.307a.9.9 0 0 0-.119-.471q-.12-.21-.426-.21-.298 0-.429.21a.9.9 0 0 0-.128.471m-3.477-3.022v-.307q0-.319.13-.583.134-.267.387-.426.255-.162.619-.162.37 0 .619.162.25.159.378.426.129.264.128.583v.306q0 .32-.131.586a1.03 1.03 0 0 1-.38.426 1.1 1.1 0 0 1-.614.159q-.369 0-.622-.16a1.06 1.06 0 0 1-.384-.425 1.3 1.3 0 0 1-.13-.585m.579-.307v.306q0 .265.125.475.126.207.432.207.298 0 .421-.207a.9.9 0 0 0 .125-.474v-.307a.9.9 0 0 0-.12-.472q-.118-.21-.426-.21-.298 0-.429.21a.9.9 0 0 0-.128.472M630.457 41l4-5.818h.647l-4 5.818z" fill="#616161"/><rect x="570" y="27" width="152" height="20" rx="2" fill="#D9D9D9"/><rect x="570" y="7" width="124" height="15" rx="2" fill="#D9D9D9"/><path d="M760.5 30.75a.74.74 0 0 1-.539-.21l-4.5-4.5a.72.72 0 0 1 0-1.056.723.723 0 0 1 1.055 0l3.984 3.961 3.961-3.96a.723.723 0 0 1 1.055 0 .724.724 0 0 1 0 1.054l-4.5 4.5a.73.73 0 0 1-.516.211" fill="#000" fill-opacity=".5"/></svg>